<svg width="59" height="17" viewBox="0 0 59 17" fill="none" xmlns="http://www.w3.org/2000/svg">
<g id="Vector">
<path d="M0.914062 0.0045166H18.0639V16.5155H0.914062V0.0045166Z" fill="#71F1CD"/>
<path d="M4.6108 12.8323C4.30592 12.8408 4.06878 12.7646 3.8994 12.6037C3.73002 12.4343 3.64533 12.1973 3.64533 11.8924V3.75124H5.28409V11.4098L9.70494 11.2828V12.7053L4.6108 12.8323Z" fill="#191A1A"/>
<path d="M13.8131 5.30074C13.6183 5.47008 13.3557 5.55475 13.0254 5.55475C12.6951 5.55475 12.4326 5.47008 12.2378 5.30074C12.043 5.12293 11.9456 4.88585 11.9456 4.58949C11.9456 4.29314 12.043 4.0603 12.2378 3.89095C12.4326 3.71314 12.6951 3.62424 13.0254 3.62424C13.3473 3.62424 13.6098 3.71314 13.8131 3.89095C14.0163 4.06876 14.1179 4.30161 14.1179 4.58949C14.1179 4.88585 14.0163 5.12293 13.8131 5.30074ZM10.5991 12.7053V11.2828H12.403V7.66308L10.942 7.75199V6.3295L12.9746 6.20249C13.2964 6.18556 13.542 6.26176 13.7114 6.43111C13.8808 6.60045 13.9655 6.84176 13.9655 7.15505V11.2828H15.7694V12.7053H10.5991Z" fill="#191A1A"/>
<path d="M23.8059 7.62498C23.1792 7.62498 22.688 7.83666 22.3323 8.26002C21.9766 8.67491 21.7987 9.30995 21.7987 10.1651V12.7053H20.16V6.3295H21.7987V7.23125L21.5066 8.20921H21.9258C22.0613 7.60804 22.3323 7.12541 22.7388 6.76133C23.1538 6.38877 23.6916 6.20249 24.3522 6.20249C25.1398 6.20249 25.7538 6.45227 26.1942 6.95184C26.643 7.44293 26.8675 8.15418 26.8675 9.08557V12.7053H25.2414V9.32688C25.2414 8.71725 25.1271 8.28119 24.8984 8.0187C24.6782 7.75622 24.3141 7.62498 23.8059 7.62498Z" fill="white"/>
<path d="M32.9764 12.7053L31.1725 10.0508L29.8005 10.7367V12.7053H28.1617V3.37022H29.8005V9.04746L32.8494 7.52337L32.7858 6.3295H34.4119L34.4627 7.63768C34.4712 8.15418 34.2425 8.52673 33.7767 8.75535L32.5572 9.36498L34.8438 12.7053H32.9764Z" fill="white"/>
<path d="M36.2053 11.9432C35.5532 11.3505 35.2271 10.5419 35.2271 9.51739C35.2271 8.49286 35.5532 7.68425 36.2053 7.09155C36.8574 6.49884 37.7001 6.20249 38.7333 6.20249C39.7581 6.20249 40.5965 6.49884 41.2486 7.09155C41.9007 7.68425 42.2268 8.49286 42.2268 9.51739C42.2268 10.5419 41.9007 11.3505 41.2486 11.9432C40.5965 12.5359 39.7581 12.8323 38.7333 12.8323C37.7001 12.8323 36.8574 12.5359 36.2053 11.9432ZM37.3613 8.13301C37.031 8.4717 36.8659 8.93316 36.8659 9.51739C36.8659 10.1016 37.031 10.5631 37.3613 10.9018C37.6916 11.2405 38.1489 11.4098 38.7333 11.4098C39.3177 11.4098 39.775 11.2405 40.1053 10.9018C40.4356 10.5631 40.6007 10.1016 40.6007 9.51739C40.6007 8.93316 40.4356 8.4717 40.1053 8.13301C39.775 7.79432 39.3177 7.62498 38.7333 7.62498C38.1489 7.62498 37.6916 7.79432 37.3613 8.13301Z" fill="white"/>
<path d="M50.2575 12.7053H48.6188V12.0956L48.9237 11.1304H48.4917C48.1106 12.265 47.2637 12.8323 45.951 12.8323C45.0618 12.8323 44.3588 12.519 43.8422 11.8924C43.3341 11.2659 43.08 10.4742 43.08 9.51739C43.08 8.5606 43.3341 7.76892 43.8422 7.14235C44.3588 6.51578 45.0618 6.20249 45.951 6.20249C47.2637 6.20249 48.1106 6.77403 48.4917 7.9171H48.9237L48.6188 6.93914V3.37022H50.2575V12.7053ZM48.0979 10.9399C48.4452 10.6266 48.6188 10.1524 48.6188 9.51739C48.6188 8.88235 48.4452 8.40819 48.0979 8.09491C47.7507 7.78162 47.268 7.62498 46.6497 7.62498C45.3624 7.62498 44.7188 8.25578 44.7188 9.51739C44.7188 10.779 45.3624 11.4098 46.6497 11.4098C47.268 11.4098 47.7507 11.2532 48.0979 10.9399Z" fill="white"/>
<path d="M51.4167 10.9526C51.4167 10.4022 51.5988 9.96615 51.963 9.6444C52.3356 9.32265 52.9454 9.11097 53.7923 9.00936L56.0027 8.74265C55.9773 7.94673 55.4861 7.54877 54.5291 7.54877C54.0802 7.54877 53.7203 7.65038 53.4493 7.85359C53.1868 8.04834 53.0555 8.34469 53.0555 8.74265H51.5057C51.5057 7.98907 51.7851 7.37943 52.3441 6.91373C52.903 6.43957 53.6314 6.20249 54.5291 6.20249C55.4522 6.20249 56.2017 6.45651 56.7776 6.96454C57.3535 7.4641 57.6415 8.18381 57.6415 9.12367V11.2828H58.5688V12.7053H57.2731C56.9936 12.7053 56.7776 12.6291 56.6252 12.4767C56.4812 12.3243 56.4092 12.1126 56.4092 11.8416V11.6257L56.6633 10.9018H56.2314C55.9265 12.1888 55.0711 12.8323 53.6653 12.8323C53.2079 12.8323 52.8184 12.7688 52.4965 12.6418C52.1832 12.5148 51.9545 12.3454 51.8105 12.1338C51.6666 11.9221 51.5649 11.7231 51.5057 11.5368C51.4464 11.3421 51.4167 11.1473 51.4167 10.9526ZM53.0555 10.6732C53.0555 10.9187 53.1359 11.105 53.2969 11.232C53.4662 11.3505 53.6864 11.4098 53.9574 11.4098C54.5757 11.4098 55.0711 11.2574 55.4438 10.9526C55.8164 10.6393 56.0027 10.2329 56.0027 9.73331L54.0845 9.97462C53.7203 10.017 53.4578 10.0889 53.2969 10.1905C53.1359 10.2837 53.0555 10.4445 53.0555 10.6732Z" fill="white"/>
</g>
</svg>
