<svg width="92" height="19" viewBox="0 0 92 19" fill="none" xmlns="http://www.w3.org/2000/svg">
<g clip-path="url(#clip0_133_344)">
<path d="M89.0924 3.94207L86.8735 7.71131L84.6325 3.9572L81.8952 3.96602L81.9244 13.6833L84.4614 13.6748L84.4447 8.12194L86.8329 11.8904L86.8862 11.8899L89.2653 8.07821L89.2821 13.6586L91.8591 13.6501L91.8298 3.93301L89.0924 3.94207ZM75.5486 11.4692C74.1333 11.474 73.1546 10.2558 73.1505 8.85405C73.1461 7.42413 74.0906 6.22708 75.5062 6.2223C76.9348 6.21775 77.9132 7.43611 77.9174 8.83804C77.9217 10.2677 76.9776 11.4645 75.5486 11.4692ZM75.5254 3.793C72.6411 3.80265 70.4846 6.07239 70.4931 8.86269C70.5016 11.6803 72.6449 13.9086 75.5293 13.8991C78.4135 13.8893 80.5701 11.6195 80.5616 8.8294C80.5531 6.0113 78.4096 3.78357 75.5254 3.793ZM66.1478 11.3755L63.3838 11.3847C63.8069 10.0507 64.1101 8.63391 64.1035 6.48246L64.1034 6.38534L66.1328 6.37884L66.1478 11.3755ZM68.7386 11.3671L68.7164 4.01013L61.5992 4.03348L61.5999 4.28357C61.611 7.93438 61.2955 9.62897 60.673 11.3939L59.8455 11.3967L59.8551 14.6083L62.1786 14.6007L62.3493 13.7482L67.3167 13.7318L67.3194 14.5836L69.812 14.5695L69.7934 11.3635L68.7386 11.3671ZM52.5952 11.4206L49.9379 11.4296L49.9158 4.07257L47.3251 4.08115L47.3473 11.4382L44.6902 11.4468L44.6681 4.08979L42.0773 4.09861L42.1066 13.8155L55.1928 13.772L55.1635 4.05511L52.5731 4.06351L52.5952 11.4206ZM34.8851 10.0083L35.9313 7.24215L36.9811 10.0012L34.8851 10.0083ZM34.693 4.05363L30.7435 13.8534L33.4677 13.8444L34.1299 12.107L37.7353 12.095L38.4212 13.8277L41.1989 13.8185L37.1903 4.04522L34.693 4.05363ZM26.731 11.7013L24.7282 11.7081L24.7228 9.91708L26.6993 9.91044C27.5673 9.90766 27.9685 10.2533 27.9701 10.7807C27.9719 11.3777 27.5191 11.6986 26.731 11.7013ZM24.7119 6.32183L26.3943 6.31626C27.1689 6.31357 27.5706 6.61793 27.5722 7.14559C27.5739 7.742 27.1339 8.02124 26.3461 8.02403L24.7171 8.02914L24.7119 6.32183ZM28.6987 8.77954C29.5255 8.40188 30.1378 7.73364 30.1344 6.60924C30.1324 5.91539 29.9034 5.40212 29.5284 5.01452C28.9792 4.44754 28.1505 4.14466 26.9754 4.14861L22.1818 4.16481L22.211 13.8817L27.0314 13.8656C29.2613 13.8584 30.5667 12.8407 30.5617 11.1751C30.5576 9.82846 29.8349 9.16426 28.6987 8.77954Z" fill="white"/>
<path fill-rule="evenodd" clip-rule="evenodd" d="M7.59493 17.8151L16.2586 17.7875C17.1541 17.7847 17.8776 17.0735 17.8749 16.1995C17.8736 15.78 17.7017 15.3775 17.3965 15.0822L13.0519 10.8686C12.7343 10.5602 12.3188 10.4077 11.9041 10.4087C11.4887 10.4094 11.0748 10.5657 10.759 10.8753L6.44017 15.1165C5.42185 16.1165 6.15043 17.8195 7.59493 17.8151ZM17.857 10.55L17.8299 1.97574C17.8274 1.20129 17.1822 0.575441 16.3886 0.578134C16.0081 0.579201 15.6429 0.728224 15.374 0.991497L0.701825 15.4016C0.422164 15.676 0.335768 16.0851 0.480612 16.4455C0.641612 16.8445 1.02591 17.0656 1.41667 17.0643C1.66745 17.0635 1.92075 16.9712 2.11949 16.7762L10.5774 8.46843L10.5783 8.46764C11.3049 7.75456 12.4856 7.7515 13.2165 8.46012L16.1075 11.264C16.7559 11.8927 17.8599 11.4421 17.857 10.55ZM0.0192927 10.9248C0.0183642 10.6518 0.133358 10.4057 0.318359 10.2285L0.317059 10.2273L9.81002 0.902826C9.99108 0.7149 10.2459 0.596007 10.5312 0.595311C11.0814 0.593315 11.5292 1.02771 11.5308 1.56535C11.5317 1.82064 11.4293 2.05183 11.2646 2.22597L11.2666 2.2282L11.2459 2.24867C11.2427 2.25173 11.2393 2.25457 11.2359 2.25809L1.72897 11.6004C1.72414 11.6049 1.72028 11.6089 1.71592 11.6132L1.69299 11.6356L1.69122 11.6333C1.51388 11.7931 1.27944 11.8935 1.01872 11.8944C0.468403 11.8963 0.020964 11.4625 0.0192927 10.9248ZM0.170544 5.31254C0.169569 5.03934 0.284701 4.79324 0.469796 4.61613L0.468635 4.61544L4.2377 0.913272C4.41829 0.724928 4.67381 0.606128 4.95862 0.605339C5.50954 0.603435 5.95721 1.03769 5.95888 1.57463C5.95972 1.83062 5.85694 2.06181 5.69217 2.23595L5.69431 2.23809L5.67323 2.25819C5.67031 2.26172 5.66664 2.26501 5.66362 2.26808L1.88008 5.98821C1.87585 5.99257 1.87149 5.99666 1.86726 6.00102L1.84479 6.02289L1.84233 6.02135C1.66569 6.18143 1.43078 6.28124 1.17053 6.28231C0.619979 6.28384 0.172168 5.85014 0.170544 5.31254Z" fill="url(#paint0_linear_133_344)"/>
</g>
<defs>
<linearGradient id="paint0_linear_133_344" x1="17.5769" y1="0.570428" x2="0.779169" y2="17.0869" gradientUnits="userSpaceOnUse">
<stop stop-color="#584081"/>
<stop offset="1" stop-color="#E53624"/>
</linearGradient>
<clipPath id="clip0_133_344">
<rect width="92" height="18" fill="white" transform="translate(0 0.5)"/>
</clipPath>
</defs>
</svg>
